<svg width="50%" id="Layer_1" data-name="Layer 1" xmlns="http://www.w3.org/2000/svg" viewBox="0 0 209.78 209.78">
<defs>
<style>.cls-1{fill:#3499db;}</style>
</defs><title>droplet</title>
<path class="cls-1" d="M105.58,16c-1.54,3.24-2.94,16.51-13.24,41-3.73,8.88-5.54,11.46-16.67,32.22-8,15-11.53,22.83-12.77,27.22-2.09,7.37-7.52,26.49,1.66,46.11,2.31,4.94,8.54,18.24,23.89,25,2.08.92,18.47,7.81,36.11,0,20.85-9.23,25.8-31.16,26.67-35,3.5-15.49.46-26.58-3.3-37-3.7-10.17-6.39-14.67-13-26.24-4.12-7.27-11.39-18.56-16.23-31.95C110.05,33.45,106.75,13.58,105.58,16Z"/>
</svg>